<svg xmlns="http://www.w3.org/2000/svg" viewBox="0 0 45.2 72.7">
  <style>.st0{fill:#00338d}.st1{fill:#fff}.st2{fill:#ffac00}</style>
  <defs>
    <!-- Mask clips the mouth to only show inside the white horse silhouette -->
    <mask id="horse-mask">
      <path fill="white" d="M19.6 35.5v.2c.7.3 1.4.6 2.2 1 1.4.8 2.2 1.3 3.4 2.4 1.5 1.4 2.3 2.3 3.3 4 1.1 2 1.4 3.3 1.9 5.6.4 1.9.4 4.8.4 4.9 0 0 1.3-.1 2.1-.1 1.8.1 2.6 1.1 4.4 1.3.6 0 .9.1 1.5 0 1.4-.3 2.3-1.8 2.8-2.3.3-.3.9-.3.9-.3s-.4-.2-.6-.2c-.6-.1-.9.3-1.5.5s-1.3.4-2.1.2-1.2-.5-1.8-1.1c-.5-.5-.9-1.5-.9-1.5.4.3.8.4 1.3.5.8.1 1.3.1 2-.1.9-.3 1.3-.7 1.9-1.5.5-.6.8-1.4.9-1.7.2-.4.4-.9 1.1-.8 0-.1-.4-.3-.7-.3-.6.1-.9.7-1.8 1.2s-1.4.8-2.4.8c-.8 0-1.3-.2-2-.6-.9-.5-1.8-1.8-1.8-1.8s.9.2 1.4.1c.7-.1 1.1-.2 1.6-.6.6-.4.8-.8 1.1-1.3.5-.8.6-1.3 1-2.2.1-.3.2-.6.5-.8.3-.1.5-.1.8-.1-.1-.1-.3-.2-.6-.3-.2 0-.3 0-.5.1-.3.1-.5.3-.7.5l-.8.8c-.7.6-1.1 1-2 1.2-.6.1-.9.1-1.5 0-.7-.2-1-.5-1.5-.9-.3-.2-.7-.6-.8-.6.1-.1.4.1.7.1.4 0 .7.1 1.1 0 .9-.2 1.4-.5 2-1.2.5-.6.7-1.3.9-1.9s.2-1.2.8-1.4c.3-.1.9.1.9.1l.2-.1s-.8-.6-1.3-.5c-.4 0-.6.2-.9.4-.3.2-.5.5-.8.7-.1.1-1.2 1.4-2.2 1.5-.9.1-2.2-.6-2.3-.7-.3-.1-1.2-.6-1.2-.6s1.3.1 2-.1c.9-.3 1.4-.7 1.9-1.4.6-.8.8-1.8 1.8-1.9h.5c.2 0 .4.2.5.2h.1c-.1-.1-.4-.4-.7-.5s-.4-.1-.7-.1-.4.1-.7.2c-.4.2-.7.4-1 .6-.2.1-1 .7-1.7.9-.8.2-1.2 0-2-.1-1.7-.2-2.5-1.1-4.1-1.7-.4-.1-.7-.3-1.1-.3-.7-.1-1.2-.2-1.9-.1-1.4 0-2.4.7-3.3 1.7zm-11.3-.3c.3.2.5.3.8.5s.5.4.8.6c.4.3.7.5.9.8.6-.4 1-.8 1.9-1.2 0 0-1-.7-1.7-.9-.3-.1-.5-.2-.8-.3-.4-.1-.7-.2-1.1-.2-.3 0-.5-.1-.9-.1-.5 0-1 0-1.3.1 0 .1.9.4 1.4.7z"/>
      <path fill="white" d="M20.9 40.2c.1.7.2 1.1.1 1.9 0 .8-.2 1.2-.4 1.9-.6 2.1-1.5 3.1-2.7 4.9-1 1.5-1.8 2.2-2.7 3.8-.9 1.6-1.5 2.5-1.9 4.3 0 .2-.1.3-.1.5-.2 1.2-.2 1.9-.1 3.1.1 1.1.5 2 .7 2.8.3.4.4.9.7 1.3h.2c.1-.3.9-1.3 1.5-2 1.6-1.8 2.6-2.7 4.6-4 1.5-.9 2.5-1.4 4.2-1.9 1.3-.3 2.1-.3 3.4-.4h1.2s-.1-2.6-.2-4.4c-.1-1.7 0-2.7-.4-4.3-1-4.2-2.8-6.5-6.3-9.1-1.3-1-2.5-1.4-3.7-2.1h-.3c.6.3 1.9 2.1 2.2 3.7z"/>
      <path fill="white" d="M12.1 33.7c.2.2 2 2.3 2 2.4s-1.6.9-1.6.9c-2 1.2-3.1 3.2-4.4 4.9-1 1.6-2.3 3.1-3.5 4.6-.4.1-.6.6-1 .7-.2.1-.4.4-.6.7-.1.3-.2.4-.2.7 0 .3-.1.5 0 .7s.2.3.5.4c.2.1.4.1.7 0 .5-.1.6-.4 1-.7.8-.6 1.2-1.2 1.9-1.6 0 .1.3.4.3.6 0 .1-.4 1-.6 1.2-.1.4-.4.6-.4 1.1 0 .3-.1.4 0 .7.1.2.2.3.4.5.1.1.2.1.3.2.3.1.5.1.8 0s.4-.2.6-.4c.2-.3.2-.7.1-1.1 0-.1-.1-.1-.1-.2.1-.8 2.2-3.4 2.9-3.4.2 0 .8.2 1.3.3.9.1 1.4.2 2.3.2.7 0 1.2 0 1.9-.2 2-.6 3-2.2 3.4-4.3.2-1 .1-1.6-.1-2.6s-.5-1.5-1.1-2.3c-.8-1.3-1.5-1.9-2.7-2.7-1.3-.9-2.4-1.1-3.7-1.5h-.3l-.1.2z"/>
    </mask>
  </defs>

  <path class="st0" d="M0 27.8h45.2v21.9c-.1 14.4-10.3 23-22.3 23C10.7 72.7.2 64.1.1 49.8l-.1-22z"/>
  <g>
    <animateTransform
      attributeName="transform"
      type="rotate"
      values="0 18 42;1.8 18 42;0.4 18 42;-0.6 18 42;0 18 42;1.2 18 42;0 18 42"
      keyTimes="0;0.2;0.4;0.55;0.7;0.85;1"
      dur="3s"
      repeatCount="indefinite"
      calcMode="spline"
      keySplines="0.4 0 0.6 1;0.4 0 0.6 1;0.4 0 0.6 1;0.4 0 0.6 1;0.4 0 0.6 1;0.4 0 0.6 1"
    />
    <path class="st1" d="M19.6 35.5v.2c.7.3 1.4.6 2.2 1 1.4.8 2.2 1.3 3.4 2.4 1.5 1.4 2.3 2.3 3.3 4 1.1 2 1.4 3.3 1.9 5.6.4 1.9.4 4.8.4 4.9 0 0 1.3-.1 2.1-.1 1.8.1 2.6 1.1 4.4 1.3.6 0 .9.1 1.5 0 1.4-.3 2.3-1.8 2.8-2.3.3-.3.9-.3.9-.3s-.4-.2-.6-.2c-.6-.1-.9.3-1.5.5s-1.3.4-2.1.2-1.2-.5-1.8-1.1c-.5-.5-.9-1.5-.9-1.5.4.3.8.4 1.3.5.8.1 1.3.1 2-.1.9-.3 1.3-.7 1.9-1.5.5-.6.8-1.4.9-1.7.2-.4.4-.9 1.1-.8 0-.1-.4-.3-.7-.3-.6.1-.9.7-1.8 1.2s-1.4.8-2.4.8c-.8 0-1.3-.2-2-.6-.9-.5-1.8-1.8-1.8-1.8s.9.2 1.4.1c.7-.1 1.1-.2 1.6-.6.6-.4.8-.8 1.1-1.3.5-.8.6-1.3 1-2.2.1-.3.2-.6.5-.8.3-.1.5-.1.8-.1-.1-.1-.3-.2-.6-.3-.2 0-.3 0-.5.1-.3.1-.5.3-.7.5l-.8.8c-.7.6-1.1 1-2 1.2-.6.1-.9.1-1.5 0-.7-.2-1-.5-1.5-.9-.3-.2-.7-.6-.8-.6.1-.1.4.1.7.1.4 0 .7.1 1.1 0 .9-.2 1.4-.5 2-1.2.5-.6.7-1.3.9-1.9s.2-1.2.8-1.4c.3-.1.9.1.9.1l.2-.1s-.8-.6-1.3-.5c-.4 0-.6.2-.9.4-.3.2-.5.5-.8.7-.1.1-1.2 1.4-2.2 1.5-.9.1-2.2-.6-2.3-.7-.3-.1-1.2-.6-1.2-.6s1.3.1 2-.1c.9-.3 1.4-.7 1.9-1.4.6-.8.8-1.8 1.8-1.9h.5c.2 0 .4.2.5.2h.1c-.1-.1-.4-.4-.7-.5s-.4-.1-.7-.1-.4.1-.7.2c-.4.2-.7.4-1 .6-.2.1-1 .7-1.7.9-.8.2-1.2 0-2-.1-1.7-.2-2.5-1.1-4.1-1.7-.4-.1-.7-.3-1.1-.3-.7-.1-1.2-.2-1.9-.1-1.4 0-2.4.7-3.3 1.7zm-11.3-.3c.3.2.5.3.8.5s.5.4.8.6c.4.3.7.5.9.8.6-.4 1-.8 1.9-1.2 0 0-1-.7-1.7-.9-.3-.1-.5-.2-.8-.3-.4-.1-.7-.2-1.1-.2-.3 0-.5-.1-.9-.1-.5 0-1 0-1.3.1 0 .1.9.4 1.4.7z"/>
    <path class="st1" d="M20.9 40.2c.1.7.2 1.1.1 1.9 0 .8-.2 1.2-.4 1.9-.6 2.1-1.5 3.1-2.7 4.9-1 1.5-1.8 2.2-2.7 3.8-.9 1.6-1.5 2.5-1.9 4.3 0 .2-.1.3-.1.5-.2 1.2-.2 1.9-.1 3.1.1 1.1.5 2 .7 2.8.3.4.4.9.7 1.3h.2c.1-.3.9-1.3 1.5-2 1.6-1.8 2.6-2.7 4.6-4 1.5-.9 2.5-1.4 4.2-1.9 1.3-.3 2.1-.3 3.4-.4h1.2s-.1-2.6-.2-4.4c-.1-1.7 0-2.7-.4-4.3-1-4.2-2.8-6.5-6.3-9.1-1.3-1-2.5-1.4-3.7-2.1h-.3c.6.3 1.9 2.1 2.2 3.7z"/>
    <path class="st1" d="M12.1 33.7c.2.2 2 2.3 2 2.4s-1.6.9-1.6.9c-2 1.2-3.1 3.2-4.4 4.9-1 1.6-2.3 3.1-3.5 4.6-.4.1-.6.6-1 .7-.2.1-.4.4-.6.7-.1.3-.2.4-.2.7 0 .3-.1.5 0 .7s.2.3.5.4c.2.1.4.1.7 0 .5-.1.6-.4 1-.7.8-.6 1.2-1.2 1.9-1.6 0 .1.3.4.3.6 0 .1-.4 1-.6 1.2-.1.4-.4.6-.4 1.1 0 .3-.1.4 0 .7.1.2.2.3.4.5.1.1.2.1.3.2.3.1.5.1.8 0s.4-.2.6-.4c.2-.3.2-.7.1-1.1 0-.1-.1-.1-.1-.2.1-.8 2.2-3.4 2.9-3.4.2 0 .8.2 1.3.3.9.1 1.4.2 2.3.2.7 0 1.2 0 1.9-.2 2-.6 3-2.2 3.4-4.3.2-1 .1-1.6-.1-2.6s-.5-1.5-1.1-2.3c-.8-1.3-1.5-1.9-2.7-2.7-1.3-.9-2.4-1.1-3.7-1.5h-.3l-.1.2z"/>
  </g>
  <path class="st0" d="M11.5 41.1c.9-.9 2-1.5 3.4-1.8h-.8s-1.2.1-1.8-.2c-.4-.1-.6-.3-.9-.5l.1 2.5z"/>

  <!-- Mouth: upper lip fixed, lower jaw opens/closes smoothly -->
  <path
    d="M2.5 47 Q5.5 46.4 8.5 47 Q5.5 47.8 2.5 47 Z"
    fill="#00338d"
    mask="url(#horse-mask)"
  >
    <animate
      attributeName="d"
      values="M2.5 47 Q5.5 46.4 8.5 47 Q5.5 47.8 2.5 47 Z;M2.5 47 Q5.5 46.4 8.5 47 Q5.5 50.8 2.5 47 Z;M2.5 47 Q5.5 46.4 8.5 47 Q5.5 47.8 2.5 47 Z"
      keyTimes="0;0.38;1"
      dur="0.7s"
      repeatCount="indefinite"
      calcMode="spline"
      keySplines="0.5 0 0.8 1;0.2 0 0.5 1"
    />
  </path>

  <path class="st2" d="M25.2 11h18.4L44.7.1c-.8-.3-1.7 0-2.1.8-.3.8 0 1.6.8 2-1-.5-2.1-.1-2.6.9-.4.9-.2 1.8.5 2.4.5.5 1.8.4 1.8.4-.3 1.2-.9 1.8-2.1 1.6-.8-.1-1.3-.8-1.4-1.6.3-.2.5-.6.4-1-.1-.5-.5-.8-1-.7-.5 0-.8.4-.9.8 0 .4.2.7.6.9-.1.8-.7 1.4-1.5 1.6-1 .2-2.1-.5-2.3-1.5.6.3 1.2.2 1.7-.1.7-.5 1-1.2.8-2-.2-1-1.2-1.7-2.2-1.5.6-.3.9-.8.8-1.5-.1-.9-.8-1.5-1.7-1.5s-1.7.7-1.7 1.6c0 .6.2 1.1.7 1.4-.9 0-1.6.4-1.9 1.2-.4.9-.1 1.9.8 2.3.5.3 1 .3 1.5.1-.1 1-1 1.7-2 1.6-.9-.1-1.6-.8-1.7-1.7.3-.1.5-.4.6-.8 0-.5-.5-1-1-.9s-.8.5-.8 1c0 .4.2.6.6.8 0 .9-.7 1.6-1.5 1.7-1 .1-1.9-.6-1.9-1.6.6.1 1 0 1.5-.4.7-.5.9-1.3.7-2.1-.3-1-1.4-1.6-2.4-1.2.8-.4 1.1-1.3.7-2.1-.4-.8-1.1-1-2-.8l.7 10.8zM1.1 11h18.4L20.6.1c-.8-.3-1.7 0-2.1.8-.3.8 0 1.6.8 2-1-.5-2.1-.1-2.6.9-.4.9-.2 1.8.5 2.4.5.5 1.8.4 1.8.4-.3 1.2-.9 1.8-2.1 1.6-.8-.1-1.3-.8-1.4-1.6.3-.2.5-.6.4-1-.1-.5-.5-.8-1-.7-.5 0-.8.4-.9.8 0 .4.2.7.6.9-.1.8-.7 1.4-1.5 1.6-1 .2-2.1-.5-2.3-1.5.6.3 1.2.2 1.7-.1.7-.5 1-1.2.8-2-.2-1-1.2-1.7-2.2-1.5.6-.3.9-.8.8-1.5-.1-.9-.8-1.5-1.7-1.5S8.5.8 8.5 1.7c0 .6.2 1.1.7 1.4-.9 0-1.6.4-1.9 1.2-.4.9-.1 1.9.8 2.3.5.3 1 .3 1.5.1-.1 1-1 1.7-2 1.6-.9-.1-1.6-.8-1.7-1.7.3-.1.5-.4.6-.8 0-.5-.5-1-1-.9s-.8.5-.8 1c0 .4.2.6.6.8 0 .9-.7 1.6-1.5 1.7-.9.1-1.8-.7-1.8-1.6.6.1 1.1 0 1.6-.4.7-.5.9-1.3.7-2.1-.3-1-1.4-1.6-2.4-1.2.8-.4 1.1-1.3.7-2.1-.4-.8-1.1-1-2-.8L1.1 11zM13.3 24.5h18.4l1.1-10.9c-.8-.3-1.7 0-2.1.8-.3.8 0 1.6.8 2-1-.5-2.1-.1-2.6.9-.4.9-.2 1.8.5 2.4.5.5 1.8.4 1.8.4-.3 1.2-.9 1.8-2.1 1.6-.8-.1-1.3-.8-1.4-1.6.3-.2.5-.6.4-1-.1-.5-.5-.8-1-.7-.5 0-.8.4-.9.8 0 .4.2.7.6.9-.1.8-.7 1.4-1.5 1.6-1 .2-2.1-.5-2.3-1.5.6.3 1.2.2 1.7-.1.7-.5 1-1.2.8-2-.2-1-1.2-1.7-2.2-1.5.6-.3.9-.8.8-1.5-.1-.9-.8-1.5-1.7-1.5s-1.7.7-1.7 1.6c0 .6.2 1.1.7 1.4-.9 0-1.6.4-1.9 1.2-.4.9-.1 1.9.8 2.3.5.3 1 .3 1.5.1-.1 1-1 1.7-2 1.6-.9-.1-1.6-.8-1.7-1.7.3-.1.5-.4.6-.8 0-.5-.5-1-1-.9s-.8.5-.8 1c0 .4.2.6.6.8 0 .9-.7 1.6-1.5 1.7-.9.1-1.8-.7-1.8-1.6.6.1 1.1 0 1.6-.4.7-.5.9-1.3.7-2.1-.3-1-1.4-1.6-2.4-1.2.8-.4 1.1-1.3.7-2.1-.4-.8-1.1-1-2-.8l.5 10.8z"/>
</svg>
